<svg width="34" height="34" fill="none" xmlns="http://www.w3.org/2000/svg"><circle cx="17" cy="17" r="17" fill="#7BE495"/><path fill-rule="evenodd" clip-rule="evenodd" d="M15.438 12.75c-.15-.334-.308-.34-.45-.346-.117-.005-.25-.005-.384-.005s-.35.05-.534.25c-.184.201-.701.685-.701 1.67 0 .986.717 1.938.817 2.072.1.134 1.386 2.22 3.421 3.023 1.692.667 2.036.534 2.404.5.367-.033 1.184-.484 1.351-.951.167-.468.167-.869.117-.952-.05-.084-.183-.134-.384-.234-.2-.1-1.185-.585-1.368-.651-.184-.067-.317-.1-.45.1-.134.2-.518.651-.635.785-.117.134-.233.15-.434.05-.2-.1-.845-.312-1.61-.994-.595-.53-.997-1.186-1.114-1.387-.117-.2-.013-.309.088-.408.09-.09.2-.234.3-.351.1-.117.133-.2.2-.334s.034-.25-.017-.35c-.05-.1-.439-1.091-.617-1.487z" fill="#fff"/><path d="M23.11 10.437a7.965 7.965 0 0 0-5.669-2.35c-4.418 0-8.013 3.595-8.015 8.012 0 1.413.369 2.791 1.07 4.006l-1.137 4.152 4.249-1.114a8.01 8.01 0 0 0 3.83.975h.003c4.418 0 8.013-3.595 8.015-8.012a7.963 7.963 0 0 0-2.345-5.669zm-5.669 12.328h-.002a6.654 6.654 0 0 1-3.391-.928l-.243-.145-2.522.661.673-2.457-.158-.252a6.642 6.642 0 0 1-1.019-3.544c.002-3.672 2.99-6.66 6.665-6.66 1.78.001 3.452.695 4.71 1.954a6.619 6.619 0 0 1 1.949 4.711 6.67 6.67 0 0 1-6.662 6.66z" fill="#fff"/></svg>