<svg width="57" height="43" fill="none" xmlns="http://www.w3.org/2000/svg"><path d="M4.292 10.561c-.392.041-.701.144-.887.206-.062.021-.082.042-.124.062v.02c.103.166.351.434.723.723l5.984 4.644c.434.35.847.742 1.239 1.176L44.473 5.278 4.293 10.56zM23.692 26.431l5.902 4.437c.64.495 1.403.723 2.146.723.557 0 1.094-.124 1.59-.372a3.777 3.777 0 0 0 1.3-1.073l16.365-22.02L23.34 26.204c.103.083.227.145.35.227z" fill="#fff"/><path d="M21.731 29.01c-.578-.432-1.073-.577-1.444-.577-.351 0-.599.103-.867.33-.269.227-.537.64-.723 1.28l-1.671 6.13 7.223-5.284-2.518-1.878z" fill="#96C9E4"/><path d="m13.352 20.076-.186.061c.537.991.97 2.043 1.259 3.096.247.908.392 1.816.392 2.703l.041 5.903.723-2.642c.289-1.052.804-1.96 1.527-2.662l.825-.66c.02-.021.041-.021.062-.042l1.486-.97 24.331-15.89-30.46 11.103z" fill="#CFE1EF"/><path d="M56.69 2.698a2.952 2.952 0 0 0-.64-.846 3.207 3.207 0 0 0-1.32-.722 5.07 5.07 0 0 0-1.486-.207c-.33 0-.66.021-.99.062L3.9 7.342c-.495.061-.97.165-1.403.31-.64.226-1.238.556-1.713 1.052a2.736 2.736 0 0 0-.578.908c-.144.33-.206.701-.206 1.073 0 .35.062.701.186 1.032.165.474.433.908.743 1.3s.701.743 1.135 1.094l5.985 4.643c.433.33.887.805 1.32 1.362.64.846 1.218 1.878 1.61 2.91.392 1.032.62 2.084.62 2.91l.082 12.34c0 .393.02.764.04 1.094.022.248.042.475.084.681.02.166.061.31.103.475.062.248.144.495.371.805a1.767 1.767 0 0 0 1.465.764c.393 0 .723-.124.95-.269.041-.02.062-.041.082-.062l.02.021 12.156-8.895.702.537c1.218.929 2.683 1.362 4.107 1.362 1.031 0 2.084-.227 3.013-.702a6.663 6.663 0 0 0 2.456-2.043L55.824 7.053c.35-.475.64-.97.846-1.466.206-.495.33-1.01.33-1.568 0-.413-.103-.887-.31-1.32zm-23.36 28.52a3.59 3.59 0 0 1-1.59.372 3.454 3.454 0 0 1-2.146-.722l-5.902-4.437c-.104-.083-.227-.145-.351-.227L50.995 8.126l-16.366 22.02c-.35.474-.805.825-1.3 1.073zm-18.512-5.282c0-.888-.145-1.796-.393-2.704a14.773 14.773 0 0 0-1.259-3.095l.186-.062 30.46-11.103-24.33 15.911-1.486.97-.062.041-.826.66c-.722.702-1.238 1.61-1.527 2.663l-.722 2.642-.041-5.923zm-4.809-9.72-5.985-4.644c-.371-.289-.619-.557-.722-.722v-.02c.041-.021.062-.042.124-.063.186-.082.495-.165.887-.206l40.201-5.283-33.246 12.114c-.413-.413-.826-.826-1.259-1.177zm7.017 19.956 1.671-6.13c.186-.64.454-1.052.723-1.28.268-.226.536-.33.866-.33.372 0 .867.145 1.445.579l2.497 1.878-7.202 5.283z" fill="url(#a)"/><defs><linearGradient id="a" x1="1.204" y1=".923" x2="56.483" y2="5.323" gradientUnits="userSpaceOnUse"><stop offset=".206" stop-color="#4F9CFF"/><stop offset=".94" stop-color="#A483E2"/></linearGradient></defs></svg>